<?xml version="1.0" encoding="utf-8"?>

<svg preserveAspectRatio="xMidYMid slice" version="1.1" xmlns="http://www.w3.org/2000/svg" xmlns:xlink="http://www.w3.org/1999/xlink" x="0px" y="0px"
	 viewBox="0 0 1920 1080" style="enable-background:new 0 0 1920 1080;" xml:space="preserve">
<g id="8592080" class="svg_509691299">
	<path class="st0" d="M1010.7,937.1l-131.5-20.5v13.2l131.5,19.7l45.6-31.2v-12.7L1010.7,937.1z"/>
</g>
<g id="4732191" class="svg_509691299">
	<path class="st0" d="M1010.7,924l-131.5-18.1v10.7l131.5,19.7l45.6-31.2v-12.7L1010.7,924z"/>
</g>
<g id="3866712" class="svg_509691299">
	<path class="st0" d="M1010.7,910l-131.5-18.1v14l131.9,18.5l45.2-32.1v-14L1010.7,910z"/>
</g>
<g id="7022823" class="svg_509691299">
	<path class="st0" d="M1010.7,896L879.3,878v14l131.9,18.5l45.2-32.1v-14L1010.7,896z"/>
</g>
<g id="8940694" class="svg_509691299">
	<path class="st0" d="M1012,879.6l-132.8-16.4v14l132.8,18.5l45.5-32.1v-11.1L1012,879.6z"/>
</g>
<g id="2522195" class="svg_509691299">
	<path class="st0" d="M1011.6,863.6l-132.4-14.4v14l132.4,16.4l45.9-27.1v-12.7L1011.6,863.6z"/>
</g>
<g id="8426236" class="svg_509691299">
	<path class="st0" d="M1011.6,849.6l-132.4-14.4v14l132.4,14.4l45.9-23.8v-14L1011.6,849.6z"/>
</g>
<g id="3607197" class="svg_509691299">
	<path class="st0" d="M1011.6,835.6l-132.4-14.4v14l132.4,14.4l45.9-23.8v-14L1011.6,835.6z"/>
</g>
<g id="9958178" class="svg_509691299">
	<path class="st0" d="M1011.6,821.7l-132.4-14.4v14l132.4,14.4l45.9-23.8v-14L1011.6,821.7z"/>
</g>
<g id="6925229" class="svg_509691299">
	<path class="st0" d="M1011.6,807.7l-132.4-14.4v14l132.4,14.4l45.9-23.8v-14L1011.6,807.7z"/>
</g>
<g id="47154810" class="svg_509691299">
	<path class="st0" d="M1011.6,792.1l-132.4-14.4v15.6l132.4,14.4l45.9-23.8v-15.6L1011.6,792.1z"/>
</g>
<g id="33610511" class="svg_509691299">
	<path class="st0" d="M1011.2,778.1l-132-14.4v14l132.4,14.4l45.9-23.8v-14L1011.2,778.1z"/>
</g>
<g id="30024012" class="svg_509691299">
	<path class="st0" d="M1012.8,762.9l-133.6-13.2v14l132.4,14.4l45.9-23.8v-13.2L1012.8,762.9z"/>
</g>
<g id="88431413" class="svg_509691299">
	<path class="st0" d="M1012.8,749.7l-133.6-13.2v14l133.6,12.3l44.7-21.8V728L1012.8,749.7z"/>
</g>
<g id="27833914" class="svg_509691299">
	<path class="st0" d="M1012.4,736.2L878.9,723v14l133.6,12.3l44.7-21.8v-13.2L1012.4,736.2z"/>
</g>
<g id="69618415" class="svg_509691299">
	<path class="st0" d="M1016.5,722.2l-138.9-12.3l1.2,13.2l133.6,13.2l44.7-21.8l0.4-9.9L1016.5,722.2z"/>
</g>
<g id="93597616" class="svg_509691299">
	<path class="st0" d="M1017.3,707l-143.7-11.1l0.8,9.5l3.2,0.8v3.7l139.7,12.3l44.3-19.7v-13.2L1017.3,707z"/>
</g>
<g id="65383717" class="svg_509691299">
	<path class="st0" d="M1017.3,693l-143.7-11.1v14.4l26.4,1.6l117.3,9.5l44.3-18.9v-13.2L1017.3,693z"/>
</g>
<g id="41092518" class="svg_509691299">
	<path class="st0" d="M1017.3,679l-143.7-11.1v14.4L900,684l117.3,9.5l44.3-18.9v-13.2L1017.3,679z"/>
</g>
<g id="12786519" class="svg_509691299">
	<path class="st0" d="M1017.3,665.1L873.6,654v14.4L900,670l117.3,9.5l44.3-18.9v-13.2L1017.3,665.1z"/>
</g>
<g id="13528420" class="svg_509691299">
	<path class="st0" d="M1018.1,649.5l-144.5-9.9V654l26.4,1.6l117.3,9.5l44.3-17.7V633L1018.1,649.5z"/>
</g>
<g id="82982921" class="svg_509691299">
	<path class="st0" d="M1062.8,614.5h-4.1l-44.7,15.2l-140.5-9v18.9l62.5,4.1l45.5,3.7l36.5,2.1l43-16v-15.2c0-0.3,0.3-0.7,0.4-0.8
		l1.2-0.8V614.5z"/>
</g>
<g id="86161822" class="svg_509691299">
	<path class="st0" d="M1023.4,610l-149.8-8.6v19.3l23.5,1.6l116.9,7.4l44.3-15.2v-4.1l-5.7-0.4v-9.9L1023.4,610z"/>
</g>
<g id="60987723" class="svg_509691299">
	<path class="st0" d="M883.3,602.2V587l141.7,8.2l38.2-12.3v13.6l-39.8,13.6l-68.2-2.5L883.3,602.2z"/>
</g>
<g id="91794624" class="svg_509691299">
	<path class="st0" d="M883.3,586.6v-15.2l141.7,8.2l38.6-11.1l-0.4,14.4l-37.4,12.3l-70.6-3.3L883.3,586.6z"/>
</g>
<g id="16577725" class="svg_509691299">
	<path class="st0" d="M883.3,571.8v-13.6l140.1,5.8l40.2-9.5v13.7l-39.4,11.4l-70.6-3.3L883.3,571.8z"/>
</g>
<g id="68201626" class="svg_509691299">
	<path class="st0" d="M883.3,557.8v-13.6l140.1,5.8l40.2-9.5v13.7l-40.2,10.1L883.3,557.8z"/>
</g>
<g id="87972127" class="svg_509691299">
	<path class="st0" d="M883.3,543.8v-13.6l140.1,5.8l40.2-9.5v13.7l-40.2,10.1L883.3,543.8z"/>
</g>
<g id="69856228" class="svg_509691299">
	<path class="st0" d="M883.3,530.3v-15.2l139.7,4.5l40.6-8.2v15.2l-40.2,9.5L883.3,530.3z"/>
</g>
<g id="14192129" class="svg_509691299">
	<path class="st0" d="M883.3,514.2V499l139.7,4.5l40.6-6.2v14l-40.2,8.6L883.3,514.2z"/>
</g>
<g id="61044530" class="svg_509691299">
	<path class="st0" d="M882.9,498.6l-0.4-13.2l139.7,4.5l41.4-6.6v13.2l-41,6.6L882.9,498.6z"/>
</g>
<g id="49589031" class="svg_509691299">
	<path class="st0" d="M882.9,485.5l-0.4-13.2l139.7,2.9l41.8-5.3l-0.4,13.6l-41,6.6L882.9,485.5z"/>
</g>
<g id="71623232" class="svg_509691299">
	<path class="st0" d="M882.9,471.9v-16.4l138.9,4.1l42.2-5.8v15.6l-41.4,5.8L882.9,471.9z"/>
</g>
<g id="11550233" class="svg_509691299">
	<path class="st0" d="M882.9,455.5l-0.4-14.8l139.3,2.5l42.2-3.7v14.4l-41.4,4.9L882.9,455.5z"/>
</g>
<g id="86490934" class="svg_509691299">
	<path class="st0" d="M882.9,440.3l-0.4-13.6l139.3,2.5l42.2-3.7l0.4,14.4l-41.8,3.3L882.9,440.3z"/>
</g>
<g id="79213435" class="svg_509691299">
	<path class="st0" d="M882.1,427.1l-0.4-13.6l139.3,0.8l43-2.1v13.2l-42.6,3.3L882.1,427.1z"/>
</g>
<g id="56608536" class="svg_509691299">
	<path class="st0" d="M1021.4,397.5l-139.7-0.8v16.9h19.1l120.6,0.8l42.6-2.5l0.8-15.2L1021.4,397.5z"/>
</g>
<g id="44807237" class="svg_509691299">
	<path class="st0" d="M881.7,396.7v-11.5v-3.7H967v-0.8l61.7,0.4l36.1,0.8v14.8l-40.2,0.4h-57.4H967L881.7,396.7z"/>
</g>
<g id="47103638" class="svg_509691299">
	<path class="st0" d="M881.7,381.5v-11.9v-2.1l147-2.1l36.1,2.1v14.4l-39.8-1.2H967v0.8H881.7z"/>
</g>
<g id="72684039" class="svg_509691299">
	<path class="st0" d="M965.7,205.2l-86.5,3.7v1.2l2.4,0.4l0.4,21.8h8.5l39.8-1.6l36.1-0.8v-2.5l59.7-2.1l39.4,5.3v-16.9h2l0.4-1.2
		l-30.5-7l-0.4-4.5l-11-2.1l-60.5,2.9V205.2z"/>
</g>
<g id="71818040" class="svg_509691299">
	<path class="st0" d="M882.5,366.7v-11.9v-2.1l147-2.1l36.1,2.1v14.4l-39.8-1.2h-58.1v0.8H882.5z"/>
</g>
<g id="97728841" class="svg_509691299">
	<path class="st0" d="M882.5,351.9V340v-2.1l147-2.1l36.1,2.1v14.4l-39.8-1.2h-58.1v0.8H882.5z"/>
</g>
<g id="40650542" class="svg_509691299">
	<path class="st0" d="M882.1,337.1v-11.9v-2.1l147-2.1l36.1,2.1v14.4l-39.8-1.2h-58.1v0.8H882.1z"/>
</g>
<g id="90075943" class="svg_509691299">
	<path class="st0" d="M882.1,322.7l0.4-13.2v-2.1l147-2.1l35.7,4.9v12.7l-39.4-2.5h-58.1v0.8L882.1,322.7z"/>
</g>
<g id="82796244" class="svg_509691299">
	<path class="st0" d="M882.1,307.5v-13.2v-0.4l147-3.7l36.1,4.9V310l-39.8-4.5h-58.1v0.8L882.1,307.5z"/>
</g>
<g id="66680545" class="svg_509691299">
	<path class="st0" d="M906.5,276.7l-24.8,1.6v15.6l85.3-1.6l0.8-1.2l61.3-0.8l35.7,4.9l0.8-14l-39.8-7.4l-58.9,1.6L906.5,276.7z"/>
</g>
<g id="38800146" class="svg_509691299">
	<path class="st0" d="M881.7,275.9v-11.9l144.1-5.3l39.4,7l0.4,15.2l-27.2-3.7l-12.6-3.3l-144.5,4.1l-1.6-0.8v-0.8L881.7,275.9z"/>
</g>
<g id="20649147" class="svg_509691299">
	<path class="st0" d="M881.7,263.5v-16l144.1-5.3l39.4,7v16l-39.4-6.6l-54.8,1.6L881.7,263.5z"/>
</g>
<g id="51266048" class="svg_509691299">
	<path class="st0" d="M966.2,229.8l-84,2.5l-0.8,13.6l-1.6,1.2l146.2-5.3l39.4,7.4v-18.5l-39.4-5.3l-59.7,2.1V229.8z"/>
</g>
</svg>
