<?xml version="1.0" encoding="utf-8"?>
<!-- Generator: Adobe Illustrator 26.5.0, SVG Export Plug-In . SVG Version: 6.00 Build 0)  -->
<svg version="1.1" xmlns="http://www.w3.org/2000/svg" xmlns:xlink="http://www.w3.org/1999/xlink" x="0px" y="0px"
	 viewBox="0 0 1920 1080" style="enable-background:new 0 0 1920 1080;" xml:space="preserve">
<g id="8592080">
	<polygon class="st0" points="723.4,873.1 867.5,916.1 1104.8,895 1190.4,905.9 1206.3,902.1 1235.6,902.1 1357.1,866.5 1357.1,892 
		1243,921.2 1208.5,921.6 1191.1,924.4 1105.9,912.8 866.1,934.6 723.4,896.9 	"/>
</g>

<g id="8940694">
	<path class="st0" d="M647.8,290.2c16.2-6.5,24.3-8.1,40.5-14.5c30.1,3.3,68.6,7.5,98.7,10.7c19.6,1.4,41.4,4,61,5.4
		c18.4,1.2,34.3,2.9,52.7,4.1c11.2,2.3,23.2,0.9,35,1c45.4-4.3,89.9-6.3,135.3-10.7c48.1-4.3,95.9-7.1,144-11.4
		c17.3-1.4,47.2-2.9,64.6-4.3c-1.3,1.5-15.7,0.4-17,1.8c0.1,3.7,0.3,3.2,0.3,6.9c5.6-0.2,4.5-0.2,10.1-0.4c0,1.7,0,7.8,0,9.6
		c-4.4,0.1-2.5,0.4-6.9,0.5c-53,4.2-106.4,7.5-159.4,11.6c-13.8,1.1-29.1,3.2-42.9,4.4c-40.5,3.4-79.1,6.5-119.6,9.9
		c-8,0.2-22.4-0.8-37.5-1.4c-9.6-0.4-20.1,0.8-41.5-4.6c-12.5-3.1-25.8-3-38.8-4.1c-47.3-4.1-94.2-6.2-140.2-10
		c-13.5,4.7-25.4,12.4-38.5,17.8c0-2.1,0.2-13.6,0.2-15.7C647.9,294.6,647.9,292.4,647.8,290.2z"/>
</g>
</svg>
